<?xml version="1.0" encoding="UTF-8" standalone="no"?>
<!DOCTYPE svg PUBLIC "-//W3C//DTD SVG 1.1//EN"
 "http://www.w3.org/Graphics/SVG/1.1/DTD/svg11.dtd">
<!-- Generated by graphviz version 2.38.0 (20140413.2041)
 -->
<!-- Title: %3 Pages: 1 -->
<svg width="684pt" height="116pt"
 viewBox="0.00 0.00 683.59 116.00" xmlns="http://www.w3.org/2000/svg" xmlns:xlink="http://www.w3.org/1999/xlink">
<g id="graph0" class="graph" transform="scale(1 1) rotate(0) translate(4 112)">
<title>%3</title>
<polygon fill="white" stroke="none" points="-4,4 -4,-112 679.593,-112 679.593,4 -4,4"/>
<!-- PRP -->
<g id="node1" class="node"><title>PRP</title>
<ellipse fill="none" stroke="black" cx="97.1961" cy="-90" rx="27.8951" ry="18"/>
<text text-anchor="middle" x="97.1961" y="-86.3" font-family="Times New Roman,serif" font-size="14.00">PRP</text>
</g>
<!-- मुझे -->
<g id="node2" class="node"><title>मुझे</title>
<ellipse fill="none" stroke="black" cx="44.1961" cy="-18" rx="44.393" ry="18"/>
<text text-anchor="middle" x="44.1961" y="-14.3" font-family="Times New Roman,serif" font-size="14.00">मुझे</text>
</g>
<!-- PRP&#45;&gt;मुझे -->
<g id="edge1" class="edge"><title>PRP&#45;&gt;मुझे</title>
<path fill="none" stroke="black" d="M85.4337,-73.4647C78.7625,-64.6538 70.2644,-53.4298 62.7181,-43.463"/>
<polygon fill="black" stroke="black" points="65.4909,-41.327 56.6641,-35.4672 59.9101,-45.5525 65.4909,-41.327"/>
</g>
<!-- अपना -->
<g id="node3" class="node"><title>अपना</title>
<ellipse fill="none" stroke="black" cx="150.196" cy="-18" rx="44.393" ry="18"/>
<text text-anchor="middle" x="150.196" y="-14.3" font-family="Times New Roman,serif" font-size="14.00">अपना</text>
</g>
<!-- PRP&#45;&gt;अपना -->
<g id="edge2" class="edge"><title>PRP&#45;&gt;अपना</title>
<path fill="none" stroke="black" d="M108.958,-73.4647C115.63,-64.6538 124.128,-53.4298 131.674,-43.463"/>
<polygon fill="black" stroke="black" points="134.482,-45.5525 137.728,-35.4672 128.901,-41.327 134.482,-45.5525"/>
</g>
<!-- NNC -->
<g id="node4" class="node"><title>NNC</title>
<ellipse fill="none" stroke="black" cx="273.196" cy="-90" rx="29.795" ry="18"/>
<text text-anchor="middle" x="273.196" y="-86.3" font-family="Times New Roman,serif" font-size="14.00">NNC</text>
</g>
<!-- अकाउंट -->
<g id="node5" class="node"><title>अकाउंट</title>
<ellipse fill="none" stroke="black" cx="273.196" cy="-18" rx="60.3893" ry="18"/>
<text text-anchor="middle" x="273.196" y="-14.3" font-family="Times New Roman,serif" font-size="14.00">अकाउंट</text>
</g>
<!-- NNC&#45;&gt;अकाउंट -->
<g id="edge3" class="edge"><title>NNC&#45;&gt;अकाउंट</title>
<path fill="none" stroke="black" d="M273.196,-71.6966C273.196,-63.9827 273.196,-54.7125 273.196,-46.1124"/>
<polygon fill="black" stroke="black" points="276.696,-46.1043 273.196,-36.1043 269.696,-46.1044 276.696,-46.1043"/>
</g>
<!-- NN -->
<g id="node6" class="node"><title>NN</title>
<ellipse fill="none" stroke="black" cx="412.196" cy="-90" rx="27" ry="18"/>
<text text-anchor="middle" x="412.196" y="-86.3" font-family="Times New Roman,serif" font-size="14.00">NN</text>
</g>
<!-- बैलेंस -->
<g id="node7" class="node"><title>बैलेंस</title>
<ellipse fill="none" stroke="black" cx="412.196" cy="-18" rx="60.3893" ry="18"/>
<text text-anchor="middle" x="412.196" y="-14.3" font-family="Times New Roman,serif" font-size="14.00">बैलेंस</text>
</g>
<!-- NN&#45;&gt;बैलेंस -->
<g id="edge4" class="edge"><title>NN&#45;&gt;बैलेंस</title>
<path fill="none" stroke="black" d="M412.196,-71.6966C412.196,-63.9827 412.196,-54.7125 412.196,-46.1124"/>
<polygon fill="black" stroke="black" points="415.696,-46.1043 412.196,-36.1043 408.696,-46.1044 415.696,-46.1043"/>
</g>
<!-- VM -->
<g id="node8" class="node"><title>VM</title>
<ellipse fill="none" stroke="black" cx="542.196" cy="-90" rx="27" ry="18"/>
<text text-anchor="middle" x="542.196" y="-86.3" font-family="Times New Roman,serif" font-size="14.00">VM</text>
</g>
<!-- देखना -->
<g id="node9" class="node"><title>देखना</title>
<ellipse fill="none" stroke="black" cx="542.196" cy="-18" rx="51.9908" ry="18"/>
<text text-anchor="middle" x="542.196" y="-14.3" font-family="Times New Roman,serif" font-size="14.00">देखना</text>
</g>
<!-- VM&#45;&gt;देखना -->
<g id="edge5" class="edge"><title>VM&#45;&gt;देखना</title>
<path fill="none" stroke="black" d="M542.196,-71.6966C542.196,-63.9827 542.196,-54.7125 542.196,-46.1124"/>
<polygon fill="black" stroke="black" points="545.696,-46.1043 542.196,-36.1043 538.696,-46.1044 545.696,-46.1043"/>
</g>
<!-- VAUX -->
<g id="node10" class="node"><title>VAUX</title>
<ellipse fill="none" stroke="black" cx="639.196" cy="-90" rx="36.2938" ry="18"/>
<text text-anchor="middle" x="639.196" y="-86.3" font-family="Times New Roman,serif" font-size="14.00">VAUX</text>
</g>
<!-- है -->
<g id="node11" class="node"><title>है</title>
<ellipse fill="none" stroke="black" cx="639.196" cy="-18" rx="27.0966" ry="18"/>
<text text-anchor="middle" x="639.196" y="-14.3" font-family="Times New Roman,serif" font-size="14.00">है</text>
</g>
<!-- VAUX&#45;&gt;है -->
<g id="edge6" class="edge"><title>VAUX&#45;&gt;है</title>
<path fill="none" stroke="black" d="M639.196,-71.6966C639.196,-63.9827 639.196,-54.7125 639.196,-46.1124"/>
<polygon fill="black" stroke="black" points="642.696,-46.1043 639.196,-36.1043 635.696,-46.1044 642.696,-46.1043"/>
</g>
</g>
</svg>
