<?xml version="1.0" encoding="UTF-8" standalone="no"?>
<!DOCTYPE svg PUBLIC "-//W3C//DTD SVG 1.1//EN"
 "http://www.w3.org/Graphics/SVG/1.1/DTD/svg11.dtd">
<!-- Generated by graphviz version 2.38.0 (20140413.2041)
 -->
<!-- Title: %3 Pages: 1 -->
<svg width="182pt" height="116pt"
 viewBox="0.00 0.00 181.99 116.00" xmlns="http://www.w3.org/2000/svg" xmlns:xlink="http://www.w3.org/1999/xlink">
<g id="graph0" class="graph" transform="scale(1 1) rotate(0) translate(4 112)">
<title>%3</title>
<polygon fill="white" stroke="none" points="-4,4 -4,-112 177.993,-112 177.993,4 -4,4"/>
<!-- NN -->
<g id="node1" class="node"><title>NN</title>
<ellipse fill="none" stroke="black" cx="87.6465" cy="-90" rx="27" ry="18"/>
<text text-anchor="middle" x="87.6465" y="-86.3" font-family="Times New Roman,serif" font-size="14.00">NN</text>
</g>
<!-- account -->
<g id="node2" class="node"><title>account</title>
<ellipse fill="none" stroke="black" cx="39.6465" cy="-18" rx="39.7935" ry="18"/>
<text text-anchor="middle" x="39.6465" y="-14.3" font-family="Times New Roman,serif" font-size="14.00">account</text>
</g>
<!-- NN&#45;&gt;account -->
<g id="edge1" class="edge"><title>NN&#45;&gt;account</title>
<path fill="none" stroke="black" d="M76.7545,-73.1159C70.8249,-64.4685 63.3553,-53.5754 56.6749,-43.833"/>
<polygon fill="black" stroke="black" points="59.3703,-41.5749 50.8284,-35.307 53.5972,-45.5337 59.3703,-41.5749"/>
</g>
<!-- balance -->
<g id="node3" class="node"><title>balance</title>
<ellipse fill="none" stroke="black" cx="135.646" cy="-18" rx="38.1938" ry="18"/>
<text text-anchor="middle" x="135.646" y="-14.3" font-family="Times New Roman,serif" font-size="14.00">balance</text>
</g>
<!-- NN&#45;&gt;balance -->
<g id="edge2" class="edge"><title>NN&#45;&gt;balance</title>
<path fill="none" stroke="black" d="M98.5384,-73.1159C104.468,-64.4685 111.938,-53.5754 118.618,-43.833"/>
<polygon fill="black" stroke="black" points="121.696,-45.5337 124.465,-35.307 115.923,-41.5749 121.696,-45.5337"/>
</g>
</g>
</svg>
