<?xml version="1.0" encoding="UTF-8" standalone="no"?>
<!DOCTYPE svg PUBLIC "-//W3C//DTD SVG 1.1//EN"
 "http://www.w3.org/Graphics/SVG/1.1/DTD/svg11.dtd">
<!-- Generated by graphviz version 2.38.0 (20140413.2041)
 -->
<!-- Title: %3 Pages: 1 -->
<svg width="426pt" height="116pt"
 viewBox="0.00 0.00 425.84 116.00" xmlns="http://www.w3.org/2000/svg" xmlns:xlink="http://www.w3.org/1999/xlink">
<g id="graph0" class="graph" transform="scale(1 1) rotate(0) translate(4 112)">
<title>%3</title>
<polygon fill="white" stroke="none" points="-4,4 -4,-112 421.845,-112 421.845,4 -4,4"/>
<!-- NN -->
<g id="node1" class="node"><title>NN</title>
<ellipse fill="none" stroke="black" cx="71.2976" cy="-90" rx="27" ry="18"/>
<text text-anchor="middle" x="71.2976" y="-86.3" font-family="Times New Roman,serif" font-size="14.00">NN</text>
</g>
<!-- आज -->
<g id="node2" class="node"><title>आज</title>
<ellipse fill="none" stroke="black" cx="27.2976" cy="-18" rx="27.0966" ry="18"/>
<text text-anchor="middle" x="27.2976" y="-14.3" font-family="Times New Roman,serif" font-size="14.00">आज</text>
</g>
<!-- NN&#45;&gt;आज -->
<g id="edge1" class="edge"><title>NN&#45;&gt;आज</title>
<path fill="none" stroke="black" d="M61.3133,-73.1159C55.8001,-64.345 48.8347,-53.2637 42.6449,-43.4162"/>
<polygon fill="black" stroke="black" points="45.5273,-41.425 37.2423,-34.8212 39.6009,-45.1502 45.5273,-41.425"/>
</g>
<!-- मौसम -->
<g id="node3" class="node"><title>मौसम</title>
<ellipse fill="none" stroke="black" cx="116.298" cy="-18" rx="44.393" ry="18"/>
<text text-anchor="middle" x="116.298" y="-14.3" font-family="Times New Roman,serif" font-size="14.00">मौसम</text>
</g>
<!-- NN&#45;&gt;मौसम -->
<g id="edge2" class="edge"><title>NN&#45;&gt;मौसम</title>
<path fill="none" stroke="black" d="M81.5088,-73.1159C86.9884,-64.592 93.8708,-53.8861 100.065,-44.2513"/>
<polygon fill="black" stroke="black" points="103.036,-46.1018 105.499,-35.7973 97.1475,-42.3165 103.036,-46.1018"/>
</g>
<!-- WQ -->
<g id="node4" class="node"><title>WQ</title>
<ellipse fill="none" stroke="black" cx="222.298" cy="-90" rx="27" ry="18"/>
<text text-anchor="middle" x="222.298" y="-86.3" font-family="Times New Roman,serif" font-size="14.00">WQ</text>
</g>
<!-- कैसा -->
<g id="node5" class="node"><title>कैसा</title>
<ellipse fill="none" stroke="black" cx="222.298" cy="-18" rx="44.393" ry="18"/>
<text text-anchor="middle" x="222.298" y="-14.3" font-family="Times New Roman,serif" font-size="14.00">कैसा</text>
</g>
<!-- WQ&#45;&gt;कैसा -->
<g id="edge3" class="edge"><title>WQ&#45;&gt;कैसा</title>
<path fill="none" stroke="black" d="M222.298,-71.6966C222.298,-63.9827 222.298,-54.7125 222.298,-46.1124"/>
<polygon fill="black" stroke="black" points="225.798,-46.1043 222.298,-36.1043 218.798,-46.1044 225.798,-46.1043"/>
</g>
<!-- VM -->
<g id="node6" class="node"><title>VM</title>
<ellipse fill="none" stroke="black" cx="311.298" cy="-90" rx="27" ry="18"/>
<text text-anchor="middle" x="311.298" y="-86.3" font-family="Times New Roman,serif" font-size="14.00">VM</text>
</g>
<!-- है -->
<g id="node7" class="node"><title>है</title>
<ellipse fill="none" stroke="black" cx="311.298" cy="-18" rx="27.0966" ry="18"/>
<text text-anchor="middle" x="311.298" y="-14.3" font-family="Times New Roman,serif" font-size="14.00">है</text>
</g>
<!-- VM&#45;&gt;है -->
<g id="edge4" class="edge"><title>VM&#45;&gt;है</title>
<path fill="none" stroke="black" d="M311.298,-71.6966C311.298,-63.9827 311.298,-54.7125 311.298,-46.1124"/>
<polygon fill="black" stroke="black" points="314.798,-46.1043 311.298,-36.1043 307.798,-46.1044 314.798,-46.1043"/>
</g>
<!-- SYM -->
<g id="node8" class="node"><title>SYM</title>
<ellipse fill="none" stroke="black" cx="387.298" cy="-90" rx="30.5947" ry="18"/>
<text text-anchor="middle" x="387.298" y="-86.3" font-family="Times New Roman,serif" font-size="14.00">SYM</text>
</g>
<!-- ? -->
<g id="node9" class="node"><title>?</title>
<ellipse fill="none" stroke="black" cx="387.298" cy="-18" rx="27" ry="18"/>
<text text-anchor="middle" x="387.298" y="-14.3" font-family="Times New Roman,serif" font-size="14.00">?</text>
</g>
<!-- SYM&#45;&gt;? -->
<g id="edge5" class="edge"><title>SYM&#45;&gt;?</title>
<path fill="none" stroke="black" d="M387.298,-71.6966C387.298,-63.9827 387.298,-54.7125 387.298,-46.1124"/>
<polygon fill="black" stroke="black" points="390.798,-46.1043 387.298,-36.1043 383.798,-46.1044 390.798,-46.1043"/>
</g>
</g>
</svg>
