<?xml version="1.0" encoding="UTF-8" standalone="no"?>
<!DOCTYPE svg PUBLIC "-//W3C//DTD SVG 1.1//EN"
 "http://www.w3.org/Graphics/SVG/1.1/DTD/svg11.dtd">
<!-- Generated by graphviz version 2.38.0 (20140413.2041)
 -->
<!-- Title: %3 Pages: 1 -->
<svg width="655pt" height="116pt"
 viewBox="0.00 0.00 655.19 116.00" xmlns="http://www.w3.org/2000/svg" xmlns:xlink="http://www.w3.org/1999/xlink">
<g id="graph0" class="graph" transform="scale(1 1) rotate(0) translate(4 112)">
<title>%3</title>
<polygon fill="white" stroke="none" points="-4,4 -4,-112 651.19,-112 651.19,4 -4,4"/>
<!-- OTHERS -->
<g id="node1" class="node"><title>OTHERS</title>
<ellipse fill="none" stroke="black" cx="304.445" cy="-90" rx="46.5926" ry="18"/>
<text text-anchor="middle" x="304.445" y="-86.3" font-family="Times New Roman,serif" font-size="14.00">OTHERS</text>
</g>
<!-- अकाउंट -->
<g id="node2" class="node"><title>अकाउंट</title>
<ellipse fill="none" stroke="black" cx="60.4446" cy="-18" rx="60.3893" ry="18"/>
<text text-anchor="middle" x="60.4446" y="-14.3" font-family="Times New Roman,serif" font-size="14.00">अकाउंट</text>
</g>
<!-- OTHERS&#45;&gt;अकाउंट -->
<g id="edge1" class="edge"><title>OTHERS&#45;&gt;अकाउंट</title>
<path fill="none" stroke="black" d="M268.179,-78.5959C226.907,-66.7556 159.166,-47.3216 112.316,-33.8811"/>
<polygon fill="black" stroke="black" points="113.23,-30.5023 102.653,-31.1089 111.3,-37.2309 113.23,-30.5023"/>
</g>
<!-- संख्या -->
<g id="node3" class="node"><title>संख्या</title>
<ellipse fill="none" stroke="black" cx="199.445" cy="-18" rx="60.3893" ry="18"/>
<text text-anchor="middle" x="199.445" y="-14.3" font-family="Times New Roman,serif" font-size="14.00">संख्या</text>
</g>
<!-- OTHERS&#45;&gt;संख्या -->
<g id="edge2" class="edge"><title>OTHERS&#45;&gt;संख्या</title>
<path fill="none" stroke="black" d="M282.177,-74.1548C267.549,-64.4026 248.17,-51.4835 231.845,-40.6004"/>
<polygon fill="black" stroke="black" points="233.402,-37.4315 223.14,-34.7966 229.519,-43.2559 233.402,-37.4315"/>
</g>
<g id="node6" class="node"><title></title>
<ellipse fill="none" stroke="black" cx="304.445" cy="-18" rx="27" ry="18"/>
</g>
<!-- OTHERS&#45;&gt; -->
<g id="edge4" class="edge"><title>OTHERS&#45;&gt;</title>
<path fill="none" stroke="black" d="M304.445,-71.6966C304.445,-63.9827 304.445,-54.7125 304.445,-46.1124"/>
<polygon fill="black" stroke="black" points="307.945,-46.1043 304.445,-36.1043 300.945,-46.1044 307.945,-46.1043"/>
</g>
<!-- जल्दी -->
<g id="node7" class="node"><title>जल्दी</title>
<ellipse fill="none" stroke="black" cx="401.445" cy="-18" rx="51.9908" ry="18"/>
<text text-anchor="middle" x="401.445" y="-14.3" font-family="Times New Roman,serif" font-size="14.00">जल्दी</text>
</g>
<!-- OTHERS&#45;&gt;जल्दी -->
<g id="edge5" class="edge"><title>OTHERS&#45;&gt;जल्दी</title>
<path fill="none" stroke="black" d="M325.492,-73.811C338.907,-64.1305 356.499,-51.435 371.374,-40.7002"/>
<polygon fill="black" stroke="black" points="373.706,-43.3341 379.767,-34.644 369.609,-37.6577 373.706,-43.3341"/>
</g>
<!-- करो -->
<g id="node8" class="node"><title>करो</title>
<ellipse fill="none" stroke="black" cx="507.445" cy="-18" rx="35.9954" ry="18"/>
<text text-anchor="middle" x="507.445" y="-14.3" font-family="Times New Roman,serif" font-size="14.00">करो</text>
</g>
<!-- OTHERS&#45;&gt;करो -->
<g id="edge6" class="edge"><title>OTHERS&#45;&gt;करो</title>
<path fill="none" stroke="black" d="M339.094,-77.7919C371.191,-67.3111 420.203,-51.058 462.445,-36 465.011,-35.0851 467.654,-34.1274 470.313,-33.1525"/>
<polygon fill="black" stroke="black" points="471.743,-36.3551 479.899,-29.5932 469.306,-29.7929 471.743,-36.3551"/>
</g>
<!-- NUMBER -->
<g id="node4" class="node"><title>NUMBER</title>
<ellipse fill="none" stroke="black" cx="598.445" cy="-90" rx="48.9926" ry="18"/>
<text text-anchor="middle" x="598.445" y="-86.3" font-family="Times New Roman,serif" font-size="14.00">NUMBER</text>
</g>
<!-- 128890 -->
<g id="node5" class="node"><title>128890</title>
<ellipse fill="none" stroke="black" cx="598.445" cy="-18" rx="37.0935" ry="18"/>
<text text-anchor="middle" x="598.445" y="-14.3" font-family="Times New Roman,serif" font-size="14.00">128890</text>
</g>
<!-- NUMBER&#45;&gt;128890 -->
<g id="edge3" class="edge"><title>NUMBER&#45;&gt;128890</title>
<path fill="none" stroke="black" d="M598.445,-71.6966C598.445,-63.9827 598.445,-54.7125 598.445,-46.1124"/>
<polygon fill="black" stroke="black" points="601.945,-46.1043 598.445,-36.1043 594.945,-46.1044 601.945,-46.1043"/>
</g>
</g>
</svg>
