<?xml version="1.0" encoding="UTF-8" standalone="no"?>
<!DOCTYPE svg PUBLIC "-//W3C//DTD SVG 1.1//EN"
 "http://www.w3.org/Graphics/SVG/1.1/DTD/svg11.dtd">
<!-- Generated by graphviz version 2.38.0 (20140413.2041)
 -->
<!-- Title: %3 Pages: 1 -->
<svg width="602pt" height="116pt"
 viewBox="0.00 0.00 602.19 116.00" xmlns="http://www.w3.org/2000/svg" xmlns:xlink="http://www.w3.org/1999/xlink">
<g id="graph0" class="graph" transform="scale(1 1) rotate(0) translate(4 112)">
<title>%3</title>
<polygon fill="white" stroke="none" points="-4,4 -4,-112 598.191,-112 598.191,4 -4,4"/>
<!-- OTHERS -->
<g id="node1" class="node"><title>OTHERS</title>
<ellipse fill="none" stroke="black" cx="273.196" cy="-90" rx="46.5926" ry="18"/>
<text text-anchor="middle" x="273.196" y="-86.3" font-family="Times New Roman,serif" font-size="14.00">OTHERS</text>
</g>
<!-- मुझे -->
<g id="node2" class="node"><title>मुझे</title>
<ellipse fill="none" stroke="black" cx="44.1961" cy="-18" rx="44.393" ry="18"/>
<text text-anchor="middle" x="44.1961" y="-14.3" font-family="Times New Roman,serif" font-size="14.00">मुझे</text>
</g>
<!-- OTHERS&#45;&gt;मुझे -->
<g id="edge1" class="edge"><title>OTHERS&#45;&gt;मुझे</title>
<path fill="none" stroke="black" d="M237.071,-78.3271C201.453,-67.7553 145.494,-51.0168 97.1961,-36 94.0588,-35.0245 90.8199,-34.0083 87.5618,-32.9794"/>
<polygon fill="black" stroke="black" points="88.4027,-29.5742 77.8123,-29.8824 86.2834,-36.2457 88.4027,-29.5742"/>
</g>
<!-- अपना -->
<g id="node3" class="node"><title>अपना</title>
<ellipse fill="none" stroke="black" cx="150.196" cy="-18" rx="44.393" ry="18"/>
<text text-anchor="middle" x="150.196" y="-14.3" font-family="Times New Roman,serif" font-size="14.00">अपना</text>
</g>
<!-- OTHERS&#45;&gt;अपना -->
<g id="edge2" class="edge"><title>OTHERS&#45;&gt;अपना</title>
<path fill="none" stroke="black" d="M248.008,-74.6655C229.48,-64.1208 204.1,-49.6772 183.837,-38.1452"/>
<polygon fill="black" stroke="black" points="185.352,-34.9804 174.93,-33.0761 181.89,-41.0642 185.352,-34.9804"/>
</g>
<!-- अकाउंट -->
<g id="node4" class="node"><title>अकाउंट</title>
<ellipse fill="none" stroke="black" cx="273.196" cy="-18" rx="60.3893" ry="18"/>
<text text-anchor="middle" x="273.196" y="-14.3" font-family="Times New Roman,serif" font-size="14.00">अकाउंट</text>
</g>
<!-- OTHERS&#45;&gt;अकाउंट -->
<g id="edge3" class="edge"><title>OTHERS&#45;&gt;अकाउंट</title>
<path fill="none" stroke="black" d="M273.196,-71.6966C273.196,-63.9827 273.196,-54.7125 273.196,-46.1124"/>
<polygon fill="black" stroke="black" points="276.696,-46.1043 273.196,-36.1043 269.696,-46.1044 276.696,-46.1043"/>
</g>
<!-- बैलेंस -->
<g id="node5" class="node"><title>बैलेंस</title>
<ellipse fill="none" stroke="black" cx="412.196" cy="-18" rx="60.3893" ry="18"/>
<text text-anchor="middle" x="412.196" y="-14.3" font-family="Times New Roman,serif" font-size="14.00">बैलेंस</text>
</g>
<!-- OTHERS&#45;&gt;बैलेंस -->
<g id="edge4" class="edge"><title>OTHERS&#45;&gt;बैलेंस</title>
<path fill="none" stroke="black" d="M300.658,-75.1703C321.519,-64.6645 350.475,-50.0825 373.656,-38.4089"/>
<polygon fill="black" stroke="black" points="375.515,-41.3915 382.872,-33.7677 372.366,-35.1396 375.515,-41.3915"/>
</g>
<!-- देखना -->
<g id="node6" class="node"><title>देखना</title>
<ellipse fill="none" stroke="black" cx="542.196" cy="-18" rx="51.9908" ry="18"/>
<text text-anchor="middle" x="542.196" y="-14.3" font-family="Times New Roman,serif" font-size="14.00">देखना</text>
</g>
<!-- OTHERS&#45;&gt;देखना -->
<g id="edge5" class="edge"><title>OTHERS&#45;&gt;देखना</title>
<path fill="none" stroke="black" d="M311.599,-79.4871C353.39,-69.0712 422.146,-51.7495 481.196,-36 485.199,-34.9323 489.346,-33.8104 493.507,-32.6736"/>
<polygon fill="black" stroke="black" points="494.468,-36.0394 503.182,-30.0123 492.611,-29.2901 494.468,-36.0394"/>
</g>
</g>
</svg>
