<?xml version="1.0" encoding="UTF-8" standalone="no"?>
<!DOCTYPE svg PUBLIC "-//W3C//DTD SVG 1.1//EN"
 "http://www.w3.org/Graphics/SVG/1.1/DTD/svg11.dtd">
<!-- Generated by graphviz version 2.38.0 (20140413.2041)
 -->
<!-- Title: %3 Pages: 1 -->
<svg width="469pt" height="116pt"
 viewBox="0.00 0.00 468.79 116.00" xmlns="http://www.w3.org/2000/svg" xmlns:xlink="http://www.w3.org/1999/xlink">
<g id="graph0" class="graph" transform="scale(1 1) rotate(0) translate(4 112)">
<title>%3</title>
<polygon fill="white" stroke="none" points="-4,4 -4,-112 464.791,-112 464.791,4 -4,4"/>
<!-- OTHERS -->
<g id="node1" class="node"><title>OTHERS</title>
<ellipse fill="none" stroke="black" cx="97.1961" cy="-90" rx="46.5926" ry="18"/>
<text text-anchor="middle" x="97.1961" y="-86.3" font-family="Times New Roman,serif" font-size="14.00">OTHERS</text>
</g>
<!-- मेरा -->
<g id="node2" class="node"><title>मेरा</title>
<ellipse fill="none" stroke="black" cx="44.1961" cy="-18" rx="44.393" ry="18"/>
<text text-anchor="middle" x="44.1961" y="-14.3" font-family="Times New Roman,serif" font-size="14.00">मेरा</text>
</g>
<!-- OTHERS&#45;&gt;मेरा -->
<g id="edge1" class="edge"><title>OTHERS&#45;&gt;मेरा</title>
<path fill="none" stroke="black" d="M84.6358,-72.411C78.1013,-63.7805 69.986,-53.0622 62.7439,-43.4972"/>
<polygon fill="black" stroke="black" points="65.493,-41.3298 56.6662,-35.4699 59.9122,-45.5553 65.493,-41.3298"/>
</g>
<!-- नंबर -->
<g id="node5" class="node"><title>नंबर</title>
<ellipse fill="none" stroke="black" cx="150.196" cy="-18" rx="44.393" ry="18"/>
<text text-anchor="middle" x="150.196" y="-14.3" font-family="Times New Roman,serif" font-size="14.00">नंबर</text>
</g>
<!-- OTHERS&#45;&gt;नंबर -->
<g id="edge3" class="edge"><title>OTHERS&#45;&gt;नंबर</title>
<path fill="none" stroke="black" d="M109.756,-72.411C116.291,-63.7805 124.406,-53.0622 131.648,-43.4972"/>
<polygon fill="black" stroke="black" points="134.48,-45.5553 137.726,-35.4699 128.899,-41.3298 134.48,-45.5553"/>
</g>
<!-- PRODUCT -->
<g id="node3" class="node"><title>PRODUCT</title>
<ellipse fill="none" stroke="black" cx="273.196" cy="-90" rx="53.8905" ry="18"/>
<text text-anchor="middle" x="273.196" y="-86.3" font-family="Times New Roman,serif" font-size="14.00">PRODUCT</text>
</g>
<!-- मोबाइल -->
<g id="node4" class="node"><title>मोबाइल</title>
<ellipse fill="none" stroke="black" cx="273.196" cy="-18" rx="60.3893" ry="18"/>
<text text-anchor="middle" x="273.196" y="-14.3" font-family="Times New Roman,serif" font-size="14.00">मोबाइल</text>
</g>
<!-- PRODUCT&#45;&gt;मोबाइल -->
<g id="edge2" class="edge"><title>PRODUCT&#45;&gt;मोबाइल</title>
<path fill="none" stroke="black" d="M273.196,-71.6966C273.196,-63.9827 273.196,-54.7125 273.196,-46.1124"/>
<polygon fill="black" stroke="black" points="276.696,-46.1043 273.196,-36.1043 269.696,-46.1044 276.696,-46.1043"/>
</g>
<!-- NUMBER -->
<g id="node6" class="node"><title>NUMBER</title>
<ellipse fill="none" stroke="black" cx="406.196" cy="-90" rx="48.9926" ry="18"/>
<text text-anchor="middle" x="406.196" y="-86.3" font-family="Times New Roman,serif" font-size="14.00">NUMBER</text>
</g>
<!-- 9900111111 -->
<g id="node7" class="node"><title>9900111111</title>
<ellipse fill="none" stroke="black" cx="406.196" cy="-18" rx="54.6905" ry="18"/>
<text text-anchor="middle" x="406.196" y="-14.3" font-family="Times New Roman,serif" font-size="14.00">9900111111</text>
</g>
<!-- NUMBER&#45;&gt;9900111111 -->
<g id="edge4" class="edge"><title>NUMBER&#45;&gt;9900111111</title>
<path fill="none" stroke="black" d="M406.196,-71.6966C406.196,-63.9827 406.196,-54.7125 406.196,-46.1124"/>
<polygon fill="black" stroke="black" points="409.696,-46.1043 406.196,-36.1043 402.696,-46.1044 409.696,-46.1043"/>
</g>
</g>
</svg>
