<?xml version="1.0" encoding="UTF-8" standalone="no"?>
<!DOCTYPE svg PUBLIC "-//W3C//DTD SVG 1.1//EN"
 "http://www.w3.org/Graphics/SVG/1.1/DTD/svg11.dtd">
<!-- Generated by graphviz version 2.38.0 (20140413.2041)
 -->
<!-- Title: %3 Pages: 1 -->
<svg width="308pt" height="305pt"
 viewBox="0.00 0.00 308.49 305.00" xmlns="http://www.w3.org/2000/svg" xmlns:xlink="http://www.w3.org/1999/xlink">
<g id="graph0" class="graph" transform="scale(1 1) rotate(0) translate(4 301)">
<title>%3</title>
<polygon fill="white" stroke="none" points="-4,4 -4,-301 304.494,-301 304.494,4 -4,4"/>
<!-- देखना -->
<g id="node1" class="node"><title>देखना</title>
<ellipse fill="none" stroke="black" cx="167.196" cy="-192" rx="51.9908" ry="18"/>
<text text-anchor="middle" x="167.196" y="-188.3" font-family="Times New Roman,serif" font-size="14.00">देखना</text>
</g>
<!-- मुझे -->
<g id="node2" class="node"><title>मुझे</title>
<ellipse fill="none" stroke="black" cx="44.1961" cy="-105" rx="44.393" ry="18"/>
<text text-anchor="middle" x="44.1961" y="-101.3" font-family="Times New Roman,serif" font-size="14.00">मुझे</text>
</g>
<!-- देखना&#45;&gt;मुझे -->
<g id="edge1" class="edge"><title>देखना&#45;&gt;मुझे</title>
<path fill="none" stroke="black" d="M144.922,-175.607C125.12,-161.923 96.007,-141.804 74.1663,-126.711"/>
<polygon fill="black" stroke="black" points="76.1084,-123.799 65.8918,-120.993 72.1288,-129.558 76.1084,-123.799"/>
<text text-anchor="middle" x="128.696" y="-144.8" font-family="Times New Roman,serif" font-size="14.00">nsubj</text>
</g>
<!-- बैलेंस -->
<g id="node3" class="node"><title>बैलेंस</title>
<ellipse fill="none" stroke="black" cx="167.196" cy="-105" rx="60.3893" ry="18"/>
<text text-anchor="middle" x="167.196" y="-101.3" font-family="Times New Roman,serif" font-size="14.00">बैलेंस</text>
</g>
<!-- देखना&#45;&gt;बैलेंस -->
<g id="edge4" class="edge"><title>देखना&#45;&gt;बैलेंस</title>
<path fill="none" stroke="black" d="M167.196,-173.799C167.196,-162.163 167.196,-146.548 167.196,-133.237"/>
<polygon fill="black" stroke="black" points="170.696,-133.175 167.196,-123.175 163.696,-133.175 170.696,-133.175"/>
<text text-anchor="middle" x="176.696" y="-144.8" font-family="Times New Roman,serif" font-size="14.00">obj</text>
</g>
<!-- है -->
<g id="node7" class="node"><title>है</title>
<ellipse fill="none" stroke="black" cx="273.196" cy="-105" rx="27.0966" ry="18"/>
<text text-anchor="middle" x="273.196" y="-101.3" font-family="Times New Roman,serif" font-size="14.00">है</text>
</g>
<!-- देखना&#45;&gt;है -->
<g id="edge6" class="edge"><title>देखना&#45;&gt;है</title>
<path fill="none" stroke="black" d="M187.134,-175.012C204.582,-161.02 229.991,-140.646 248.679,-125.66"/>
<polygon fill="black" stroke="black" points="250.874,-128.386 256.486,-119.4 246.495,-122.925 250.874,-128.386"/>
<text text-anchor="middle" x="237.196" y="-144.8" font-family="Times New Roman,serif" font-size="14.00">aux</text>
</g>
<!-- अपने -->
<g id="node4" class="node"><title>अपने</title>
<ellipse fill="none" stroke="black" cx="106.196" cy="-18" rx="44.393" ry="18"/>
<text text-anchor="middle" x="106.196" y="-14.3" font-family="Times New Roman,serif" font-size="14.00">अपने</text>
</g>
<!-- बैलेंस&#45;&gt;अपने -->
<g id="edge2" class="edge"><title>बैलेंस&#45;&gt;अपने</title>
<path fill="none" stroke="black" d="M155.144,-87.2067C146.231,-74.7862 133.95,-57.6735 123.919,-43.6965"/>
<polygon fill="black" stroke="black" points="126.689,-41.5529 118.015,-35.4692 121.002,-45.6342 126.689,-41.5529"/>
<text text-anchor="middle" x="157.696" y="-57.8" font-family="Times New Roman,serif" font-size="14.00">nmod</text>
</g>
<!-- अकाउंट -->
<g id="node5" class="node"><title>अकाउंट</title>
<ellipse fill="none" stroke="black" cx="229.196" cy="-18" rx="60.3893" ry="18"/>
<text text-anchor="middle" x="229.196" y="-14.3" font-family="Times New Roman,serif" font-size="14.00">अकाउंट</text>
</g>
<!-- बैलेंस&#45;&gt;अकाउंट -->
<g id="edge3" class="edge"><title>बैलेंस&#45;&gt;अकाउंट</title>
<path fill="none" stroke="black" d="M179.445,-87.2067C188.447,-74.8663 200.826,-57.8941 210.985,-43.9675"/>
<polygon fill="black" stroke="black" points="213.907,-45.9001 216.972,-35.7584 208.252,-41.775 213.907,-45.9001"/>
<text text-anchor="middle" x="232.696" y="-57.8" font-family="Times New Roman,serif" font-size="14.00">compound</text>
</g>
<!-- root -->
<g id="node6" class="node"><title>root</title>
<ellipse fill="none" stroke="black" cx="167.196" cy="-279" rx="27" ry="18"/>
<text text-anchor="middle" x="167.196" y="-275.3" font-family="Times New Roman,serif" font-size="14.00">root</text>
</g>
<!-- root&#45;&gt;देखना -->
<g id="edge5" class="edge"><title>root&#45;&gt;देखना</title>
<path fill="none" stroke="black" d="M167.196,-260.799C167.196,-249.163 167.196,-233.548 167.196,-220.237"/>
<polygon fill="black" stroke="black" points="170.696,-220.175 167.196,-210.175 163.696,-220.175 170.696,-220.175"/>
<text text-anchor="middle" x="179.196" y="-231.8" font-family="Times New Roman,serif" font-size="14.00">root</text>
</g>
</g>
</svg>
