<?xml version="1.0" encoding="UTF-8" standalone="no"?>
<!DOCTYPE svg PUBLIC "-//W3C//DTD SVG 1.1//EN"
 "http://www.w3.org/Graphics/SVG/1.1/DTD/svg11.dtd">
<!-- Generated by graphviz version 2.38.0 (20140413.2041)
 -->
<!-- Title: %3 Pages: 1 -->
<svg width="312pt" height="218pt"
 viewBox="0.00 0.00 312.30 218.00" xmlns="http://www.w3.org/2000/svg" xmlns:xlink="http://www.w3.org/1999/xlink">
<g id="graph0" class="graph" transform="scale(1 1) rotate(0) translate(4 214)">
<title>%3</title>
<polygon fill="white" stroke="none" points="-4,4 -4,-214 308.298,-214 308.298,4 -4,4"/>
<!-- कैसा -->
<g id="node1" class="node"><title>कैसा</title>
<ellipse fill="none" stroke="black" cx="160.298" cy="-105" rx="44.393" ry="18"/>
<text text-anchor="middle" x="160.298" y="-101.3" font-family="Times New Roman,serif" font-size="14.00">कैसा</text>
</g>
<!-- आज -->
<g id="node2" class="node"><title>आज</title>
<ellipse fill="none" stroke="black" cx="27.2976" cy="-18" rx="27.0966" ry="18"/>
<text text-anchor="middle" x="27.2976" y="-14.3" font-family="Times New Roman,serif" font-size="14.00">आज</text>
</g>
<!-- कैसा&#45;&gt;आज -->
<g id="edge1" class="edge"><title>कैसा&#45;&gt;आज</title>
<path fill="none" stroke="black" d="M135.079,-90.1742C123.975,-83.9225 110.855,-76.3096 99.2976,-69 83.7879,-59.1907 66.9144,-47.5286 53.4031,-37.9357"/>
<polygon fill="black" stroke="black" points="55.2286,-34.9385 45.0579,-31.9709 51.1582,-40.6333 55.2286,-34.9385"/>
<text text-anchor="middle" x="115.798" y="-57.8" font-family="Times New Roman,serif" font-size="14.00">nmod</text>
</g>
<!-- मौसम -->
<g id="node3" class="node"><title>मौसम</title>
<ellipse fill="none" stroke="black" cx="116.298" cy="-18" rx="44.393" ry="18"/>
<text text-anchor="middle" x="116.298" y="-14.3" font-family="Times New Roman,serif" font-size="14.00">मौसम</text>
</g>
<!-- कैसा&#45;&gt;मौसम -->
<g id="edge2" class="edge"><title>कैसा&#45;&gt;मौसम</title>
<path fill="none" stroke="black" d="M151.605,-87.2067C145.337,-75.0991 136.762,-58.5329 129.632,-44.759"/>
<polygon fill="black" stroke="black" points="132.678,-43.0301 124.973,-35.7584 126.461,-46.2481 132.678,-43.0301"/>
<text text-anchor="middle" x="156.798" y="-57.8" font-family="Times New Roman,serif" font-size="14.00">nsubj</text>
</g>
<!-- है -->
<g id="node5" class="node"><title>है</title>
<ellipse fill="none" stroke="black" cx="205.298" cy="-18" rx="27.0966" ry="18"/>
<text text-anchor="middle" x="205.298" y="-14.3" font-family="Times New Roman,serif" font-size="14.00">है</text>
</g>
<!-- कैसा&#45;&gt;है -->
<g id="edge4" class="edge"><title>कैसा&#45;&gt;है</title>
<path fill="none" stroke="black" d="M169.188,-87.2067C175.681,-74.9419 184.597,-58.1018 191.944,-44.2237"/>
<polygon fill="black" stroke="black" points="195.145,-45.6572 196.731,-35.1817 188.959,-42.3819 195.145,-45.6572"/>
<text text-anchor="middle" x="196.298" y="-57.8" font-family="Times New Roman,serif" font-size="14.00">cop</text>
</g>
<!-- ? -->
<g id="node6" class="node"><title>?</title>
<ellipse fill="none" stroke="black" cx="277.298" cy="-18" rx="27" ry="18"/>
<text text-anchor="middle" x="277.298" y="-14.3" font-family="Times New Roman,serif" font-size="14.00">?</text>
</g>
<!-- कैसा&#45;&gt;? -->
<g id="edge5" class="edge"><title>कैसा&#45;&gt;?</title>
<path fill="none" stroke="black" d="M182.294,-89.2348C191.345,-83.0742 201.892,-75.7848 211.298,-69 225.033,-59.0924 240.104,-47.7144 252.373,-38.3177"/>
<polygon fill="black" stroke="black" points="254.573,-41.041 260.368,-32.1713 250.307,-35.4914 254.573,-41.041"/>
<text text-anchor="middle" x="247.298" y="-57.8" font-family="Times New Roman,serif" font-size="14.00">punct</text>
</g>
<!-- root -->
<g id="node4" class="node"><title>root</title>
<ellipse fill="none" stroke="black" cx="160.298" cy="-192" rx="27" ry="18"/>
<text text-anchor="middle" x="160.298" y="-188.3" font-family="Times New Roman,serif" font-size="14.00">root</text>
</g>
<!-- root&#45;&gt;कैसा -->
<g id="edge3" class="edge"><title>root&#45;&gt;कैसा</title>
<path fill="none" stroke="black" d="M160.298,-173.799C160.298,-162.163 160.298,-146.548 160.298,-133.237"/>
<polygon fill="black" stroke="black" points="163.798,-133.175 160.298,-123.175 156.798,-133.175 163.798,-133.175"/>
<text text-anchor="middle" x="172.298" y="-144.8" font-family="Times New Roman,serif" font-size="14.00">root</text>
</g>
</g>
</svg>
