<?xml version="1.0" encoding="UTF-8" standalone="no"?>
<!DOCTYPE svg PUBLIC "-//W3C//DTD SVG 1.1//EN"
 "http://www.w3.org/Graphics/SVG/1.1/DTD/svg11.dtd">
<!-- Generated by graphviz version 2.38.0 (20140413.2041)
 -->
<!-- Title: %3 Pages: 1 -->
<svg width="878pt" height="479pt"
 viewBox="0.00 0.00 878.00 479.00" xmlns="http://www.w3.org/2000/svg" xmlns:xlink="http://www.w3.org/1999/xlink">
<g id="graph0" class="graph" transform="scale(1 1) rotate(0) translate(4 475)">
<title>%3</title>
<polygon fill="white" stroke="none" points="-4,4 -4,-475 873.995,-475 873.995,4 -4,4"/>
<!-- पड़ीपड़ी -->
<g id="node1" class="node"><title>पड़ीपड़ी</title>
<ellipse fill="none" stroke="black" cx="320.995" cy="-192" rx="77.1866" ry="18"/>
<text text-anchor="middle" x="320.995" y="-188.3" font-family="Times New Roman,serif" font-size="14.00">पड़ीपड़ी</text>
</g>
<!-- एकबार -->
<g id="node2" class="node"><title>एकबार</title>
<ellipse fill="none" stroke="black" cx="51.9954" cy="-105" rx="51.9908" ry="18"/>
<text text-anchor="middle" x="51.9954" y="-101.3" font-family="Times New Roman,serif" font-size="14.00">एकबार</text>
</g>
<!-- पड़ीपड़ी&#45;&gt;एकबार -->
<g id="edge1" class="edge"><title>पड़ीपड़ी&#45;&gt;एकबार</title>
<path fill="none" stroke="black" d="M271.305,-178.165C247.76,-171.865 219.311,-163.935 193.995,-156 160.642,-145.546 123.385,-132.37 95.4047,-122.168"/>
<polygon fill="black" stroke="black" points="96.5099,-118.845 85.9161,-118.693 94.1025,-125.418 96.5099,-118.845"/>
<text text-anchor="middle" x="216.995" y="-144.8" font-family="Times New Roman,serif" font-size="14.00">advmod</text>
</g>
<!-- बिस्तर -->
<g id="node3" class="node"><title>बिस्तर</title>
<ellipse fill="none" stroke="black" cx="181.995" cy="-105" rx="60.3893" ry="18"/>
<text text-anchor="middle" x="181.995" y="-101.3" font-family="Times New Roman,serif" font-size="14.00">बिस्तर</text>
</g>
<!-- पड़ीपड़ी&#45;&gt;बिस्तर -->
<g id="edge2" class="edge"><title>पड़ीपड़ी&#45;&gt;बिस्तर</title>
<path fill="none" stroke="black" d="M294.851,-175.012C272.578,-161.392 240.413,-141.723 216.116,-126.865"/>
<polygon fill="black" stroke="black" points="217.911,-123.86 207.553,-121.629 214.259,-129.832 217.911,-123.86"/>
<text text-anchor="middle" x="269.495" y="-144.8" font-family="Times New Roman,serif" font-size="14.00">obl</text>
</g>
<!-- रोमरोम -->
<g id="node5" class="node"><title>रोमरोम</title>
<ellipse fill="none" stroke="black" cx="320.995" cy="-105" rx="60.3893" ry="18"/>
<text text-anchor="middle" x="320.995" y="-101.3" font-family="Times New Roman,serif" font-size="14.00">रोमरोम</text>
</g>
<!-- पड़ीपड़ी&#45;&gt;रोमरोम -->
<g id="edge4" class="edge"><title>पड़ीपड़ी&#45;&gt;रोमरोम</title>
<path fill="none" stroke="black" d="M320.995,-173.799C320.995,-162.163 320.995,-146.548 320.995,-133.237"/>
<polygon fill="black" stroke="black" points="324.495,-133.175 320.995,-123.175 317.495,-133.175 324.495,-133.175"/>
<text text-anchor="middle" x="330.495" y="-144.8" font-family="Times New Roman,serif" font-size="14.00">obl</text>
</g>
<!-- रीत -->
<g id="node7" class="node"><title>रीत</title>
<ellipse fill="none" stroke="black" cx="434.995" cy="-105" rx="35.9954" ry="18"/>
<text text-anchor="middle" x="434.995" y="-101.3" font-family="Times New Roman,serif" font-size="14.00">रीत</text>
</g>
<!-- पड़ीपड़ी&#45;&gt;रीत -->
<g id="edge6" class="edge"><title>पड़ीपड़ी&#45;&gt;रीत</title>
<path fill="none" stroke="black" d="M342.976,-174.611C361.432,-160.85 387.885,-141.126 407.696,-126.355"/>
<polygon fill="black" stroke="black" points="409.813,-129.142 415.737,-120.359 405.628,-123.531 409.813,-129.142"/>
<text text-anchor="middle" x="400.495" y="-144.8" font-family="Times New Roman,serif" font-size="14.00">nsubj</text>
</g>
<!-- गईसी -->
<g id="node8" class="node"><title>गईसी</title>
<ellipse fill="none" stroke="black" cx="532.995" cy="-105" rx="44.393" ry="18"/>
<text text-anchor="middle" x="532.995" y="-101.3" font-family="Times New Roman,serif" font-size="14.00">गईसी</text>
</g>
<!-- पड़ीपड़ी&#45;&gt;गईसी -->
<g id="edge7" class="edge"><title>पड़ीपड़ी&#45;&gt;गईसी</title>
<path fill="none" stroke="black" d="M363.169,-176.89C380.84,-170.771 401.529,-163.337 419.995,-156 445.524,-145.857 473.787,-133.351 495.661,-123.384"/>
<polygon fill="black" stroke="black" points="497.288,-126.488 504.922,-119.141 494.373,-120.124 497.288,-126.488"/>
<text text-anchor="middle" x="470.495" y="-144.8" font-family="Times New Roman,serif" font-size="14.00">nsubj</text>
</g>
<!-- पर -->
<g id="node4" class="node"><title>पर</title>
<ellipse fill="none" stroke="black" cx="181.995" cy="-18" rx="27.0966" ry="18"/>
<text text-anchor="middle" x="181.995" y="-14.3" font-family="Times New Roman,serif" font-size="14.00">पर</text>
</g>
<!-- बिस्तर&#45;&gt;पर -->
<g id="edge3" class="edge"><title>बिस्तर&#45;&gt;पर</title>
<path fill="none" stroke="black" d="M181.995,-86.799C181.995,-75.1626 181.995,-59.5479 181.995,-46.2368"/>
<polygon fill="black" stroke="black" points="185.495,-46.1754 181.995,-36.1754 178.495,-46.1755 185.495,-46.1754"/>
<text text-anchor="middle" x="194.495" y="-57.8" font-family="Times New Roman,serif" font-size="14.00">case</text>
</g>
<!-- से -->
<g id="node6" class="node"><title>से</title>
<ellipse fill="none" stroke="black" cx="320.995" cy="-18" rx="27.0966" ry="18"/>
<text text-anchor="middle" x="320.995" y="-14.3" font-family="Times New Roman,serif" font-size="14.00">से</text>
</g>
<!-- रोमरोम&#45;&gt;से -->
<g id="edge5" class="edge"><title>रोमरोम&#45;&gt;से</title>
<path fill="none" stroke="black" d="M320.995,-86.799C320.995,-75.1626 320.995,-59.5479 320.995,-46.2368"/>
<polygon fill="black" stroke="black" points="324.495,-46.1754 320.995,-36.1754 317.495,-46.1755 324.495,-46.1754"/>
<text text-anchor="middle" x="333.495" y="-57.8" font-family="Times New Roman,serif" font-size="14.00">case</text>
</g>
<!-- वह -->
<g id="node9" class="node"><title>वह</title>
<ellipse fill="none" stroke="black" cx="320.995" cy="-279" rx="27.0966" ry="18"/>
<text text-anchor="middle" x="320.995" y="-275.3" font-family="Times New Roman,serif" font-size="14.00">वह</text>
</g>
<!-- वह&#45;&gt;पड़ीपड़ी -->
<g id="edge8" class="edge"><title>वह&#45;&gt;पड़ीपड़ी</title>
<path fill="none" stroke="black" d="M320.995,-260.799C320.995,-249.163 320.995,-233.548 320.995,-220.237"/>
<polygon fill="black" stroke="black" points="324.495,-220.175 320.995,-210.175 317.495,-220.175 324.495,-220.175"/>
<text text-anchor="middle" x="342.495" y="-231.8" font-family="Times New Roman,serif" font-size="14.00">acl:relcl</text>
</g>
<!-- कर -->
<g id="node10" class="node"><title>कर</title>
<ellipse fill="none" stroke="black" cx="477.995" cy="-366" rx="27.0966" ry="18"/>
<text text-anchor="middle" x="477.995" y="-362.3" font-family="Times New Roman,serif" font-size="14.00">कर</text>
</g>
<!-- कर&#45;&gt;वह -->
<g id="edge9" class="edge"><title>कर&#45;&gt;वह</title>
<path fill="none" stroke="black" d="M456.018,-355.091C441.393,-348.343 421.843,-339.03 404.995,-330 385.989,-319.813 365.156,-307.421 348.992,-297.522"/>
<polygon fill="black" stroke="black" points="350.413,-294.287 340.064,-292.018 346.739,-300.245 350.413,-294.287"/>
<text text-anchor="middle" x="420.495" y="-318.8" font-family="Times New Roman,serif" font-size="14.00">nsubj</text>
</g>
<!-- शिकायत -->
<g id="node11" class="node"><title>शिकायत</title>
<ellipse fill="none" stroke="black" cx="426.995" cy="-279" rx="60.3893" ry="18"/>
<text text-anchor="middle" x="426.995" y="-275.3" font-family="Times New Roman,serif" font-size="14.00">शिकायत</text>
</g>
<!-- कर&#45;&gt;शिकायत -->
<g id="edge10" class="edge"><title>कर&#45;&gt;शिकायत</title>
<path fill="none" stroke="black" d="M463.191,-350.575C457.604,-344.582 451.512,-337.323 446.995,-330 442.578,-322.838 438.795,-314.533 435.746,-306.772"/>
<polygon fill="black" stroke="black" points="439.021,-305.538 432.284,-297.361 432.451,-307.954 439.021,-305.538"/>
<text text-anchor="middle" x="477.495" y="-318.8" font-family="Times New Roman,serif" font-size="14.00">compound</text>
</g>
<!-- बैठी -->
<g id="node13" class="node"><title>बैठी</title>
<ellipse fill="none" stroke="black" cx="549.995" cy="-279" rx="44.393" ry="18"/>
<text text-anchor="middle" x="549.995" y="-275.3" font-family="Times New Roman,serif" font-size="14.00">बैठी</text>
</g>
<!-- कर&#45;&gt;बैठी -->
<g id="edge12" class="edge"><title>कर&#45;&gt;बैठी</title>
<path fill="none" stroke="black" d="M490.875,-350.04C496.19,-343.849 502.403,-336.59 507.995,-330 515.147,-321.572 522.943,-312.311 529.856,-304.074"/>
<polygon fill="black" stroke="black" points="532.675,-306.159 536.417,-296.247 527.311,-301.662 532.675,-306.159"/>
<text text-anchor="middle" x="529.995" y="-318.8" font-family="Times New Roman,serif" font-size="14.00">aux</text>
</g>
<!-- रह -->
<g id="node17" class="node"><title>रह</title>
<ellipse fill="none" stroke="black" cx="690.995" cy="-279" rx="27.0966" ry="18"/>
<text text-anchor="middle" x="690.995" y="-275.3" font-family="Times New Roman,serif" font-size="14.00">रह</text>
</g>
<!-- कर&#45;&gt;रह -->
<g id="edge19" class="edge"><title>कर&#45;&gt;रह</title>
<path fill="none" stroke="black" d="M500.79,-355.904C538.724,-340.765 614.934,-310.353 658.492,-292.971"/>
<polygon fill="black" stroke="black" points="660.052,-296.117 668.043,-289.16 657.458,-289.615 660.052,-296.117"/>
<text text-anchor="middle" x="610.495" y="-318.8" font-family="Times New Roman,serif" font-size="14.00">conj</text>
</g>
<!-- root -->
<g id="node12" class="node"><title>root</title>
<ellipse fill="none" stroke="black" cx="477.995" cy="-453" rx="27" ry="18"/>
<text text-anchor="middle" x="477.995" y="-449.3" font-family="Times New Roman,serif" font-size="14.00">root</text>
</g>
<!-- root&#45;&gt;कर -->
<g id="edge11" class="edge"><title>root&#45;&gt;कर</title>
<path fill="none" stroke="black" d="M477.995,-434.799C477.995,-423.163 477.995,-407.548 477.995,-394.237"/>
<polygon fill="black" stroke="black" points="481.495,-394.175 477.995,-384.175 474.495,-394.175 481.495,-394.175"/>
<text text-anchor="middle" x="489.995" y="-405.8" font-family="Times New Roman,serif" font-size="14.00">root</text>
</g>
<!-- थी -->
<g id="node14" class="node"><title>थी</title>
<ellipse fill="none" stroke="black" cx="545.995" cy="-192" rx="27.0966" ry="18"/>
<text text-anchor="middle" x="545.995" y="-188.3" font-family="Times New Roman,serif" font-size="14.00">थी</text>
</g>
<!-- बैठी&#45;&gt;थी -->
<g id="edge13" class="edge"><title>बैठी&#45;&gt;थी</title>
<path fill="none" stroke="black" d="M549.186,-260.799C548.638,-249.163 547.904,-233.548 547.277,-220.237"/>
<polygon fill="black" stroke="black" points="550.77,-220 546.804,-210.175 543.778,-220.329 550.77,-220"/>
<text text-anchor="middle" x="573.495" y="-231.8" font-family="Times New Roman,serif" font-size="14.00">aux:pass</text>
</g>
<!-- सबकुछ -->
<g id="node15" class="node"><title>सबकुछ</title>
<ellipse fill="none" stroke="black" cx="642.995" cy="-192" rx="51.9908" ry="18"/>
<text text-anchor="middle" x="642.995" y="-188.3" font-family="Times New Roman,serif" font-size="14.00">सबकुछ</text>
</g>
<!-- मेरा -->
<g id="node16" class="node"><title>मेरा</title>
<ellipse fill="none" stroke="black" cx="642.995" cy="-105" rx="44.393" ry="18"/>
<text text-anchor="middle" x="642.995" y="-101.3" font-family="Times New Roman,serif" font-size="14.00">मेरा</text>
</g>
<!-- सबकुछ&#45;&gt;मेरा -->
<g id="edge14" class="edge"><title>सबकुछ&#45;&gt;मेरा</title>
<path fill="none" stroke="black" d="M642.995,-173.799C642.995,-162.163 642.995,-146.548 642.995,-133.237"/>
<polygon fill="black" stroke="black" points="646.495,-133.175 642.995,-123.175 639.495,-133.175 646.495,-133.175"/>
<text text-anchor="middle" x="659.495" y="-144.8" font-family="Times New Roman,serif" font-size="14.00">nmod</text>
</g>
<!-- रह&#45;&gt;सबकुछ -->
<g id="edge15" class="edge"><title>रह&#45;&gt;सबकुछ</title>
<path fill="none" stroke="black" d="M681.967,-262.012C675.061,-249.783 665.401,-232.677 657.427,-218.556"/>
<polygon fill="black" stroke="black" points="660.441,-216.775 652.476,-209.789 654.346,-220.217 660.441,-216.775"/>
<text text-anchor="middle" x="685.495" y="-231.8" font-family="Times New Roman,serif" font-size="14.00">nsubj</text>
</g>
<!-- तस -->
<g id="node18" class="node"><title>तस</title>
<ellipse fill="none" stroke="black" cx="739.995" cy="-192" rx="27.0966" ry="18"/>
<text text-anchor="middle" x="739.995" y="-188.3" font-family="Times New Roman,serif" font-size="14.00">तस</text>
</g>
<!-- रह&#45;&gt;तस -->
<g id="edge18" class="edge"><title>रह&#45;&gt;तस</title>
<path fill="none" stroke="black" d="M700.212,-262.012C707.353,-249.625 717.378,-232.235 725.577,-218.011"/>
<polygon fill="black" stroke="black" points="728.692,-219.617 730.654,-209.205 722.627,-216.121 728.692,-219.617"/>
<text text-anchor="middle" x="738.995" y="-231.8" font-family="Times New Roman,serif" font-size="14.00">xcomp</text>
</g>
<!-- गया -->
<g id="node21" class="node"><title>गया</title>
<ellipse fill="none" stroke="black" cx="820.995" cy="-192" rx="35.9954" ry="18"/>
<text text-anchor="middle" x="820.995" y="-188.3" font-family="Times New Roman,serif" font-size="14.00">गया</text>
</g>
<!-- रह&#45;&gt;गया -->
<g id="edge20" class="edge"><title>रह&#45;&gt;गया</title>
<path fill="none" stroke="black" d="M713.54,-268.846C728.156,-262.483 747.321,-253.314 762.995,-243 775.089,-235.043 787.388,-224.808 797.53,-215.674"/>
<polygon fill="black" stroke="black" points="800.173,-217.998 805.156,-208.649 795.43,-212.85 800.173,-217.998"/>
<text text-anchor="middle" x="791.995" y="-231.8" font-family="Times New Roman,serif" font-size="14.00">aux</text>
</g>
<!-- जस -->
<g id="node19" class="node"><title>जस</title>
<ellipse fill="none" stroke="black" cx="739.995" cy="-105" rx="27.0966" ry="18"/>
<text text-anchor="middle" x="739.995" y="-101.3" font-family="Times New Roman,serif" font-size="14.00">जस</text>
</g>
<!-- तस&#45;&gt;जस -->
<g id="edge16" class="edge"><title>तस&#45;&gt;जस</title>
<path fill="none" stroke="black" d="M739.995,-173.799C739.995,-162.163 739.995,-146.548 739.995,-133.237"/>
<polygon fill="black" stroke="black" points="743.495,-133.175 739.995,-123.175 736.495,-133.175 743.495,-133.175"/>
<text text-anchor="middle" x="756.495" y="-144.8" font-family="Times New Roman,serif" font-size="14.00">nmod</text>
</g>
<!-- का -->
<g id="node20" class="node"><title>का</title>
<ellipse fill="none" stroke="black" cx="739.995" cy="-18" rx="27.0966" ry="18"/>
<text text-anchor="middle" x="739.995" y="-14.3" font-family="Times New Roman,serif" font-size="14.00">का</text>
</g>
<!-- जस&#45;&gt;का -->
<g id="edge17" class="edge"><title>जस&#45;&gt;का</title>
<path fill="none" stroke="black" d="M739.995,-86.799C739.995,-75.1626 739.995,-59.5479 739.995,-46.2368"/>
<polygon fill="black" stroke="black" points="743.495,-46.1754 739.995,-36.1754 736.495,-46.1755 743.495,-46.1754"/>
<text text-anchor="middle" x="752.495" y="-57.8" font-family="Times New Roman,serif" font-size="14.00">case</text>
</g>
<!-- है -->
<g id="node22" class="node"><title>है</title>
<ellipse fill="none" stroke="black" cx="820.995" cy="-105" rx="27.0966" ry="18"/>
<text text-anchor="middle" x="820.995" y="-101.3" font-family="Times New Roman,serif" font-size="14.00">है</text>
</g>
<!-- गया&#45;&gt;है -->
<g id="edge21" class="edge"><title>गया&#45;&gt;है</title>
<path fill="none" stroke="black" d="M820.995,-173.799C820.995,-162.163 820.995,-146.548 820.995,-133.237"/>
<polygon fill="black" stroke="black" points="824.495,-133.175 820.995,-123.175 817.495,-133.175 824.495,-133.175"/>
<text text-anchor="middle" x="845.495" y="-144.8" font-family="Times New Roman,serif" font-size="14.00">aux:pass</text>
</g>
</g>
</svg>
